<svg t="1750756724965" class="icon" viewBox="0 0 1024 1024" version="1.1" xmlns="http://www.w3.org/2000/svg" p-id="31497" width="32" height="32"><path d="M512 1024C230.4 1024 0 793.6 0 512S230.4 0 512 0s512 230.4 512 512-230.4 512-512 512z m0-960C264.533333 64 64 264.533333 64 512S264.533333 960 512 960 960 759.466667 960 512 759.466667 64 512 64z" fill="currentColor" p-id="31498"></path><path d="M358.4 379.733333v68.266667h-42.666667V341.333333h174.933334c-4.266667-12.8-12.8-29.866667-21.333334-42.666666l42.666667-12.8c8.533333 17.066667 21.333333 38.4 25.6 55.466666h162.133333v110.933334h-46.933333V379.733333H358.4z m277.333333 85.333334H388.266667V426.666667h247.466666v38.4z m-25.6 209.066666h55.466667c17.066667 0 17.066667-8.533333 21.333333-59.733333 8.533333 8.533333 29.866667 12.8 38.4 17.066667-4.266667 64-17.066667 81.066667-55.466666 81.066666h-68.266667c-46.933333 0-59.733333-12.8-59.733333-55.466666v-106.666667H469.333333c-8.533333 93.866667-29.866667 145.066667-149.333333 166.4 0-8.533333-12.8-25.6-21.333333-34.133333 106.666667-17.066667 123.733333-55.466667 128-132.266667H302.933333v-42.666667h413.866667v42.666667h-128v106.666667c0 12.8 4.266667 17.066667 21.333333 17.066666z" fill="currentColor" p-id="31499"></path></svg>
