<svg t="1761285816947" class="icon" viewBox="0 0 1024 1024" version="1.1" xmlns="http://www.w3.org/2000/svg" p-id="2062" width="32" height="32"><path d="M411.409 204.8c0-56.457 45.943-102.4 102.4-102.4s102.4 45.943 102.4 102.4-45.943 102.4-102.4 102.4-102.4-45.943-102.4-102.4z" fill="currentColor" p-id="2063"></path><path d="M411.409 512c0-56.457 45.943-102.4 102.4-102.4s102.4 45.943 102.4 102.4-45.943 102.4-102.4 102.4-102.4-45.943-102.4-102.4z" fill="currentColor" p-id="2064"></path><path d="M411.409 819.2c0-56.457 45.943-102.4 102.4-102.4s102.4 45.943 102.4 102.4-45.943 102.4-102.4 102.4-102.4-45.943-102.4-102.4z" fill="currentColor" p-id="2065"></path></svg>
