<svg t="1735285268339" class="icon" viewBox="0 0 1024 1024" version="1.1" xmlns="http://www.w3.org/2000/svg" p-id="38146" width="32" height="32"><path d="M670.08 816c-58.24 0-104.96-46.72-104.96-104.32 0-57.6 48-104.32 106.24-104.32 58.24 0.64 104.96 47.36 104.96 104.32a105.6 105.6 0 0 1-106.24 104.32z m304 152.96c0.64-16.64-6.4-32.64-19.84-42.88l-112.64-88.96c27.52-35.84 42.24-80 42.24-124.8 0.64-92.8-60.8-174.08-150.4-200.96-89.6-26.88-186.88 7.68-238.08 85.12-51.84 77.44-45.44 179.2 15.36 249.6a213.568 213.568 0 0 0 247.04 56.96c1.92 1.92 3.84 4.48 6.4 5.76l123.52 97.92c6.4 5.12 14.72 8.96 23.04 10.88-17.28 4.48-109.44 6.4-193.28 6.4H307.2C142.08 1024 33.92 923.52 33.92 750.72V273.28C33.92 109.44 136.32 0 307.2 0h409.6c166.4 0 273.28 107.52 273.28 273.28v478.08c0.64 25.6-4.48 194.56-16 217.6zM238.72 580.48h204.8c18.56 0 33.92-15.36 33.92-33.92 0.64-19.2-14.72-34.56-33.92-34.56h-204.8a34.304 34.304 0 0 0 0 68.48z m546.56-307.2H238.72c-18.56 0-33.92 15.36-33.92 33.92 0 18.56 15.36 33.92 33.92 33.92h545.92c18.56 0 33.92-15.36 33.92-33.92a33.216 33.216 0 0 0-33.28-33.92z" fill="currentColor" p-id="38147"></path></svg>
