<svg  class="icon" viewBox="0 0 1024 1024" version="1.1" xmlns="http://www.w3.org/2000/svg" id="mx_n_1748489778970" data-spm-anchor-id="a313x.search_index.0.i13.4e603a81ppbEIe" width="128" height="128"><path d="M650.048 400.576l-64.64 60.416a134.848 134.848 0 0 1 7.936 181.952l-8 8.768-201.6 201.6a150.656 150.656 0 0 1-220.8-204.672l7.808-8.384 99.328-94.72-62.656-67.2L108.16 577.664a239.168 239.168 0 0 0 328 348.16l10.24-9.984 201.6-201.6a223.36 223.36 0 0 0 9.024-306.304l-6.912-7.36z m268.736-295.36a239.168 239.168 0 0 0-328.32-9.28l-9.92 9.28-201.6 201.6C294.848 391.04 291.84 525.504 365.888 613.184l8.576 9.6L441.6 560.128a134.848 134.848 0 0 1-8.064-181.952l8.064-8.704 201.6-201.6A150.656 150.656 0 0 1 864 372.48l-7.808 8.384-99.328 94.72 62.592 67.2 99.328-99.328a239.168 239.168 0 0 0 9.28-328.32l-9.28-9.92z" fill="currentColor" p-id="5584"></path></svg>
