<svg t="1731917572984" class="icon" viewBox="0 0 1024 1024" version="1.1" xmlns="http://www.w3.org/2000/svg" p-id="18786" id="mx_n_1731917572985" width="32" height="32"><path d="M886.951936 438.203392c-63.514624 63.514624-166.499328 63.514624-230.013952 0l-63.895552-63.900672c-63.519744-63.514624-63.519744-166.494208 0-230.013952l63.895552-63.895552c63.515648-63.514624 166.499328-63.514624 230.013952 0l63.895552 63.895552c63.519744 63.519744 63.519744 166.499328 0 230.013952L886.951936 438.203392z" fill="currentColor" p-id="18787"></path><path d="M444.669952 304.477184c0 89.827328-72.81664 162.644992-162.644992 162.644992l-90.361856 0c-89.827328 0-162.644992-72.81664-162.644992-162.644992l0-90.361856c0-89.827328 72.81664-162.644992 162.644992-162.644992l90.361856 0c89.827328 0 162.644992 72.81664 162.644992 162.644992L444.669952 304.477184z" fill="currentColor" p-id="18788"></path><path d="M979.771392 828.194816c0 89.822208-72.81664 162.644992-162.644992 162.644992l-90.361856 0c-89.827328 0-162.644992-72.82176-162.644992-162.644992l0-90.366976c0-89.822208 72.81664-162.644992 162.644992-162.644992l90.361856 0c89.827328 0 162.644992 72.82176 162.644992 162.644992L979.771392 828.194816z" fill="currentColor" p-id="18789"></path><path d="M444.669952 828.194816c0 89.822208-72.81664 162.644992-162.644992 162.644992l-90.361856 0c-89.827328 0-162.644992-72.82176-162.644992-162.644992l0-90.366976c0-89.822208 72.81664-162.644992 162.644992-162.644992l90.361856 0c89.827328 0 162.644992 72.82176 162.644992 162.644992L444.669952 828.194816z" fill="currentColor" p-id="18790"></path></svg>
