<svg t="1731476884971" class="icon" viewBox="0 0 1024 1024" version="1.1" xmlns="http://www.w3.org/2000/svg" p-id="12117" width="32" height="32"><path fill="currentColor" d="M147.2 545.28 108.864 545.28c-42.432 0-76.8 34.368-76.8 76.8l0 294.4c0 42.432 34.368 76.8 76.8 76.8L147.2 993.28c42.432 0 76.8-34.368 76.8-76.8l0-294.4C224 579.712 189.632 545.28 147.2 545.28z" p-id="12118"></path><path d="M531.2 32.704 492.8 32.704c-42.432 0-76.8 34.368-76.8 76.8l0 806.4c0 42.432 34.368 76.8 76.8 76.8l38.4 0c42.432 0 76.8-34.368 76.8-76.8l0-806.4C608 67.072 573.632 32.704 531.2 32.704z" p-id="12119"></path><path d="M913.856 289.28l-38.4 0c-42.432 0-76.8 34.368-76.8 76.8l0 550.4c0 42.432 34.368 76.8 76.8 76.8l38.4 0c42.432 0 76.8-34.368 76.8-76.8l0-550.4C990.656 323.712 956.224 289.28 913.856 289.28z" p-id="12120"/></svg>
